<?xml version="1.0" encoding="utf-8"?>
<!-- Generator: Adobe Illustrator 18.0.0, SVG Export Plug-In . SVG Version: 6.00 Build 0)  -->
<!DOCTYPE svg PUBLIC "-//W3C//DTD SVG 1.1//EN" "http://www.w3.org/Graphics/SVG/1.1/DTD/svg11.dtd">
<svg version="1.1" id="Calque_1" xmlns="http://www.w3.org/2000/svg" xmlns:xlink="http://www.w3.org/1999/xlink" x="0px" y="0px"
	 viewBox="0 0 86.8 42.4" enable-background="new 0 0 86.8 42.4" xml:space="preserve">
<path fill="#091035" d="M49.9,36.3L49.9,36.3c0.9-0.7,1.4-1.1,1.4-1.1c-4.9,1.4-7.9,0.1-9.5-0.9c0.4-0.5,0.7-1,1-1.5
	c-0.1-0.1-0.2-0.1-0.3-0.1c0.1-0.1,0.2-0.1,0.2,0c0.1,0,0.1,0,0.1,0c2.5-4,3.6-9,3.6-14.4c0-3.1-0.6-5.7-1.6-8
	c-0.4,0.1-0.9,0.2-1.3,0.2c0.2-0.3,0.7-0.4,1.3-0.3c-0.1-0.3-0.2-0.5-0.4-0.7c-0.1,0.1-0.4,0.1-0.3-0.4h0.1C41.7,4.6,37,2,31.3,0.7
	c0,0,0,0,0,0.1c-0.1,0-0.1,0-0.1-0.1C28.6,0.2,26,0,23.3,0C10.4,0,0,5,0,18.3c0,0.4,0,0.8,0,1.2c0.1,0,0.2,0,0.4,0.1
	c-0.1,0.1-0.3,0.1-0.4,0.1c0.1,0.8,0.1,1.6,0.2,2.4c0-0.1,0.9-0.1,0.7,0.2c-0.3,0-0.4-0.1-0.6-0.1c-0.1,0-0.1-0.1-0.1-0.1
	C1,26.9,3.1,31.1,6,34.5c0.1,0,0.3,0,0.4,0c0,0.1-0.1,0.1-0.2,0.1c4.2,4.7,10.3,7.7,17.1,7.7c5,0,9.2-1,12.5-2.8
	c5.7,1.1,10.1-0.6,12.7-2.1c-0.1-0.1-0.5,0.1-0.9-0.1c0.4-0.2,1.1-0.2,1.7-0.3l0,0c0.2-0.1,0.4-0.3,0.7-0.4
	C49.7,36.4,49.7,36.3,49.9,36.3"/>
<path fill="#FED241" d="M40.3,15.5c2.5-4-0.9-7.8-3.3-6.2c-0.2,0.1-0.4,0.5-0.5,0.5c1.1,0.4,2.3,4.4-0.4,6.2c-1.5,1-3.1,0.9-4.3,0.4
	c-0.2-1.7-0.7-3.1-1.2-3.5c-1.2-0.9-2.8-0.3-2,2c0.2,0.7,0.9,1.3,1.7,1.8c0.1,4.8-1.2,14.5-3.6,14.6c-2.3,0.1-0.9-10.2-0.3-12.6
	c0,0,0.6-2.5-2.8-2.1c-0.3,0-0.8,1.5-1.3,3.6c-1.3,4.1-3.6,10.4-4.7,10.2c-1.7-0.1,0.7-12.2,3.6-18.6c0,0,0.9-2.8-1.7-3
	c-0.7,0-1.3,0.4-1.9,1c-3.6,2.7-9.5,4.3-11.4,8.4c-2.1,4.8,3.1,7.1,4.7,5.4l0.1-0.1c-1.5-1.5-1.3-3.9,0-5.5c0.8-1,3.1-3.5,5.1-5.5
	c-0.9,2.2-1.8,5.2-2.5,8.4c-1.5,6.5-1.9,12.1,3.6,12.4c1.5,0.1,3.2-3.3,4.5-7.1c0.1,3.3,1.1,6.1,4,6.5c5,0.7,6.5-9.3,6-15.5
	C34.6,18.5,38.4,18.5,40.3,15.5 M29.7,14c0.4-0.2,0.6,0.4,0.7,1.4C29.7,14.8,29.4,14.1,29.7,14"/>
<text transform="matrix(0.96 0 0 1 52.0511 17.5693)" fill="#091035" font-family="'Gotham-Bold'" font-size="11.9324">WEL</text>
<text transform="matrix(0.96 0 0 1 52.0511 28.2963)" fill="#091035" font-family="'Gotham-Bold'" font-size="11.9324">COM</text>
<text transform="matrix(0.96 0 0 1 52.0511 35.8745)" fill="#091035" font-family="'Gotham-Light'" font-size="7.13">T</text>
<text transform="matrix(0.96 0 0 1 56.1216 35.8745)" fill="#091035" font-family="'Gotham-Light'" font-size="7.13">O </text>
<text transform="matrix(0.96 0 0 1 63.9808 35.8745)" fill="#091035" font-family="'Gotham-Light'" font-size="7.13">P</text>
<text transform="matrix(0.96 0 0 1 68.0512 35.8745)" fill="#091035" font-family="'Gotham-Light'" font-size="7.13">ARIS</text>
<path fill="#D85D71" d="M82.3,24.1c0,0,3.1,0.4,3.9-1.4c1.8-3.6-1.2-5.7-3.2-4.4c-0.1,0.1-0.4,0.4-0.4,0.4
	C83.5,19.3,84.6,22.7,82.3,24.1"/>
</svg>
