<?xml version="1.0" encoding="utf-8"?>
<!-- Generator: Adobe Illustrator 18.0.0, SVG Export Plug-In . SVG Version: 6.00 Build 0)  -->
<!DOCTYPE svg PUBLIC "-//W3C//DTD SVG 1.1//EN" "http://www.w3.org/Graphics/SVG/1.1/DTD/svg11.dtd">
<svg version="1.1" id="Calque_1" xmlns="http://www.w3.org/2000/svg" xmlns:xlink="http://www.w3.org/1999/xlink" x="0px" y="0px"
	 viewBox="0 0 300 300" enable-background="new 0 0 300 300" xml:space="preserve">
<path fill="#FED224" d="M224.9,44.6c-11.5-20-32.2-31.7-57.6-37l-0.7-0.1c-10.9-2.2-22.6-3.2-34.8-3.2c-56.9,0-103,22.4-103,81.2
	c0,1.7,0,3.4,0.1,5.1l0.1,1.2c0.2,3.5,0.6,7,1.1,10.5l0,0.1c3.2,20.9,12.3,39.8,25.5,54.8l0.7,0.7c18.8,21,45.7,34.1,75.5,34.1
	c22.2,0,40.5-4.5,55.2-12.4c25.4,4.7,44.7-2.5,56.3-9.2l7-4.6c3.7-2.8,5.7-4.8,5.7-4.8c-21.5,6.1-34.9,0.8-42.1-4.3
	c1.6-2.2,3.2-4.4,4.6-6.7l0.4-0.6c10.9-17.8,15.9-39.8,15.9-63.8c0-13.8-2.5-25.6-7.2-35.6 M246.3,168.3
	C246.3,168.3,246.3,168.3,246.3,168.3"/>
<path fill="#DB5B71" d="M207.6,72.9c11.1-17.7-4.2-34.4-14.8-27.6c-0.9,0.6-2,2.2-2.2,2.4c4.7,1.9,10.4,19.6-1.6,27.3
	c-6.9,4.4-13.7,3.8-19,1.5c-1-7.8-2.8-13.6-5.2-15.5c-5.3-4.2-12.4-1.2-8.7,8.6c1.1,2.8,3.9,5.7,7.7,8.2
	c0.6,21.4-5.2,64.6-16.1,64.9c-9.8,0.2-3.8-45.2-1.1-55.7c0,0,2.4-10.9-12.2-9.4c-1.2,0.1-3.7,6.8-5.7,16c-5.8,18-15.7,46-20.6,45.6
	c-7.3-0.6,3.2-54.3,16-82.5c0,0,3.7-12.6-7.3-13.1c-2.9-0.1-5.7,1.5-8.4,4.6C92.5,60,66.2,67.1,58,85.5c-9.5,21.2,13.4,31.6,20.5,24
	l0.3-0.3c-6.4-6.9-5.9-17.4,0.1-24.6c3.7-4.5,13.8-15.4,22.5-24.2c-4.3,9.8-8.1,23-11.4,37.1c-6.8,29-8.3,53.9,16.1,55.1
	c6.9,0.3,14.1-14.7,19.9-31.5c0.5,14.4,4.8,27.2,17.7,28.8c22.1,2.8,28.9-41.3,26.8-68.6C182.6,86.3,199,86.6,207.6,72.9
	 M160.6,66.3c1.5-0.9,2.4,1.6,2.9,6.2C160.5,69.8,159.3,67,160.6,66.3"/>
<text transform="matrix(0.997 0 0 1 -0.2314 254.8584)" fill="#FFFFFF" font-family="'Gotham-Bold'" font-size="57.1605">WELCOM</text>
<text transform="matrix(0.997 0 0 1.0417 52.3105 295.4199)"><tspan x="0" y="0" fill="#FFFFFF" font-family="'Gotham-Light'" font-size="32.7892" letter-spacing="-1">T</tspan><tspan x="19.5" y="0" fill="#FFFFFF" font-family="'Gotham-Light'" font-size="32.7892">O</tspan><tspan x="47.3" y="0" fill="#FFFFFF" font-family="'Gotham-Bold'" font-size="32.7892"> </tspan></text>
<text transform="matrix(0.997 0 0 1.0417 109.292 295.4199)"><tspan x="0" y="0" fill="#FFFFFF" font-family="'Gotham-Light'" font-size="32.7892" letter-spacing="-2">P</tspan><tspan x="19.6" y="0" fill="#FFFFFF" font-family="'Gotham-Light'" font-size="32.7892">ARIS</tspan></text>
<text transform="matrix(0.997 0 0 1.0417 208.1816 295.4199)" fill="#091137" font-family="'Gotham-Light'" font-size="54.8741"> </text>
<path fill="#DB5B71" d="M280.4,228.1c0,0,13.4,1.9,17.4-6c7.9-15.9-5.1-25-14.1-19.2c-0.8,0.5-1.7,1.9-1.9,2
	C285.8,206.5,290.6,221.6,280.4,228.1"/>
</svg>
