<?xml version="1.0" encoding="UTF-8" standalone="no"?>
<!-- Generator: Adobe Illustrator 18.0.0, SVG Export Plug-In . SVG Version: 6.00 Build 0)  -->

<svg
   xmlns:dc="http://purl.org/dc/elements/1.1/"
   xmlns:cc="http://creativecommons.org/ns#"
   xmlns:rdf="http://www.w3.org/1999/02/22-rdf-syntax-ns#"
   xmlns:svg="http://www.w3.org/2000/svg"
   xmlns="http://www.w3.org/2000/svg"
   xmlns:sodipodi="http://sodipodi.sourceforge.net/DTD/sodipodi-0.dtd"
   xmlns:inkscape="http://www.inkscape.org/namespaces/inkscape"
   version="1.1"
   id="Calque_1"
   x="0px"
   y="0px"
   viewBox="0 0 380 140"
   enable-background="new 0 0 380 140"
   xml:space="preserve"
   sodipodi:docname="welcom-logo-horizontal-header.svg"
   inkscape:version="0.92.1 r15371"><metadata
     id="metadata29"><rdf:RDF><cc:Work
         rdf:about=""><dc:format>image/svg+xml</dc:format><dc:type
           rdf:resource="http://purl.org/dc/dcmitype/StillImage" /></cc:Work></rdf:RDF></metadata><defs
     id="defs27" /><sodipodi:namedview
     pagecolor="#ffffff"
     bordercolor="#666666"
     borderopacity="1"
     objecttolerance="10"
     gridtolerance="10"
     guidetolerance="10"
     inkscape:pageopacity="0"
     inkscape:pageshadow="2"
     inkscape:window-width="1920"
     inkscape:window-height="1017"
     id="namedview25"
     showgrid="false"
     inkscape:zoom="1.0157895"
     inkscape:cx="190"
     inkscape:cy="70"
     inkscape:window-x="1672"
     inkscape:window-y="218"
     inkscape:window-maximized="1"
     inkscape:current-layer="Calque_1" /><path
     fill="#0C1336"
     d="M142.1,32.2C133.9,18.1,119.3,9.8,101.3,6l-0.5-0.1c-7.7-1.6-16-2.3-24.7-2.3C35.7,3.6,3,19.5,3,61.1  c0,1.2,0,2.4,0.1,3.6l0,0.9c0.1,2.5,0.4,5,0.8,7.4l0,0c2.3,14.8,8.7,28.1,18.1,38.7l0.5,0.5c13.3,14.8,32.4,24.1,53.6,24.1  c15.8,0,28.8-3.2,39.2-8.8c18,3.3,31.7-1.7,39.9-6.5l5-3.3c2.6-2,4-3.4,4-3.4c-15.2,4.3-24.8,0.6-29.9-3c1.2-1.5,2.3-3.1,3.3-4.8  l0.3-0.4c7.7-12.6,11.3-28.2,11.3-45.1c0-9.8-1.8-18.1-5.1-25.2 M157.3,119.7C157.3,119.7,157.3,119.7,157.3,119.7"
     id="path2" /><path
     fill="#FED224"
     d="M129.9,52.2c7.8-12.5-3-24.3-10.5-19.5c-0.7,0.4-1.4,1.5-1.6,1.7c3.3,1.3,7.4,13.9-1.2,19.3  c-4.9,3.1-9.7,2.7-13.5,1.1c-0.7-5.5-2-9.6-3.7-11c-3.8-2.9-8.8-0.9-6.2,6.1c0.7,2,2.7,4,5.5,5.8c0.4,15.2-3.7,45.7-11.4,45.9  c-7,0.2-2.7-32-0.8-39.4c0,0,1.7-7.7-8.6-6.6c-0.8,0.1-2.6,4.8-4,11.3c-4.1,12.7-11.1,32.5-14.6,32.3c-5.2-0.4,2.3-38.4,11.3-58.4  c0,0,2.6-8.9-5.2-9.3c-2.1-0.1-4.1,1.1-5.9,3.2c-11.3,8.4-30,13.4-35.8,26.4c-6.7,15,9.5,22.4,14.5,17l0.2-0.2  c-4.5-4.9-4.2-12.3,0-17.4c2.6-3.2,9.8-10.9,16-17.1c-3.1,6.9-5.7,16.3-8.1,26.2c-4.8,20.5-5.9,38.2,11.5,39  c4.9,0.2,10-10.4,14.1-22.3c0.3,10.2,3.4,19.2,12.5,20.4c15.7,2,20.5-29.2,19-48.5C112.1,61.7,123.8,61.9,129.9,52.2 M96.5,47.5  c1-0.6,1.7,1.2,2.1,4.4C96.5,50,95.5,48,96.5,47.5"
     id="path4" /><g
     aria-label="WELCOM"
     transform="matrix(1 0 0 1 163.3812 73.9095)"
     style="font-size:40.43690109px;font-family:Gotham-Bold;fill:#091137"
     id="text6"><path
       d="M 38.166274,-29.399681 30.525122,0 H 26.12208 L 19.942026,-24.404302 13.900185,0 H 9.5958662 L 1.8165014,-29.399681 h 4.0081499 l 6.1800537,24.4437913 6.081331,-24.4437913 h 3.968661 l 6.140564,24.6807262 6.140565,-24.6807262 z"
       style="font-size:40.43690109px;font-family:Gotham-Bold;fill:#091137"
       id="path4506" /><path
       d="M 63.281381,0 H 43.911948 v -29.399681 h 19.369433 v 3.475047 H 47.821375 v 8.055789 h 15.460006 v 3.475046 H 47.821375 v 10.9187528 h 15.460006 z"
       style="font-size:40.43690109px;font-family:Gotham-Bold;fill:#091137"
       id="path4508" /><path
       d="M 88.100321,0 H 69.500926 v -29.399681 h 3.909427 v 25.9246348 h 14.689968 z"
       style="font-size:40.43690109px;font-family:Gotham-Bold;fill:#091137"
       id="path4510" /><path
       d="m 114.32112,-2.1324147 q -1.08595,0.4738699 -1.97445,0.8885061 -0.86877,0.41463621 -2.29038,0.86876157 Q 108.85187,0 107.43026,0.25667955 q -1.40186,0.27642413 -3.09989,0.27642413 -3.19863,0 -5.824656,-0.88850613 -2.606285,-0.90825075 -4.541253,-2.82347505 -1.89548,-1.8757351 -2.961688,-4.7584439 -1.066207,-2.9024536 -1.066207,-6.7329016 0,-3.633003 1.026718,-6.495967 1.026718,-2.862965 2.961687,-4.837423 1.875736,-1.915224 4.521509,-2.922198 2.66552,-1.006973 5.90363,-1.006973 2.36935,0 4.71895,0.572593 2.36935,0.572592 5.25206,2.013947 v 4.639976 h -0.29617 q -2.42858,-2.033692 -4.81767,-2.961687 -2.3891,-0.927995 -5.11385,-0.927995 -2.23114,0 -4.02789,0.730549 -1.777016,0.710805 -3.178882,2.231138 -1.362376,1.480844 -2.132414,3.75147 -0.750294,2.250883 -0.750294,5.21257 0,3.099899 0.829272,5.3310364 0.849017,2.2311376 2.171904,3.6330028 1.382121,1.461099 3.218364,2.1719039 1.85599,0.6910603 3.90943,0.6910603 2.82347,0 5.29155,-0.9674845 2.46807,-0.9674844 4.62023,-2.9024533 h 0.27642 z"
       style="font-size:40.43690109px;font-family:Gotham-Bold;fill:#091137"
       id="path4512" /><path
       d="m 141.80558,-26.023357 q 1.79676,1.974458 2.7445,4.837422 0.96748,2.862964 0.96748,6.495967 0,3.633003 -0.98723,6.5157116 -0.96748,2.8629642 -2.72475,4.7781885 -1.8165,1.9942027 -4.30432,3.00117629 -2.46807,1.00697361 -5.64695,1.00697361 -3.0999,0 -5.64695,-1.02671819 -2.52731,-1.02671821 -4.30432,-2.98143171 -1.77701,-1.9547134 -2.7445,-4.7979331 -0.94774,-2.84322 -0.94774,-6.495967 0,-3.593514 0.94774,-6.436733 0.94774,-2.862964 2.76425,-4.896656 1.73752,-1.934969 4.30431,-2.961687 2.58654,-1.026719 5.62721,-1.026719 3.15913,0 5.66669,1.046463 2.52731,1.026718 4.28458,2.941943 z m -0.3554,11.333389 q 0,-5.725928 -2.5668,-8.825828 -2.56679,-3.119643 -7.00933,-3.119643 -4.48202,0 -7.04881,3.119643 -2.54705,3.0999 -2.54705,8.825828 0,5.7851621 2.60628,8.8653167 2.60629,3.06041 6.98958,3.06041 4.3833,0 6.96984,-3.06041 2.60629,-3.0801546 2.60629,-8.8653167 z"
       style="font-size:40.43690109px;font-family:Gotham-Bold;fill:#091137"
       id="path4514" /><path
       d="m 177.89866,0 h -3.90942 v -25.332297 l -8.17426,17.2370189 h -2.32986 L 155.3701,-25.332297 V 0 h -3.65275 v -29.399681 h 5.33104 l 7.83859,16.368258 7.58192,-16.368258 h 5.42976 z"
       style="font-size:40.43690109px;font-family:Gotham-Bold;fill:#091137"
       id="path4516" /></g><g
     aria-label="TO "
     transform="matrix(1 0 0 1.0417 162.6624 102.6028)"
     style=""
     id="text12"><path
       d="M 14.293628,-14.871263 H 8.2681052 V 0 H 6.0255232 V -14.871263 H 0 v -1.993406 h 14.293628 z"
       style="font-size:23.19599915px;font-family:Gotham-Light;letter-spacing:-1;fill:#091137"
       id="path4519" /><path
       d="m 28.637285,-14.927894 q 1.030681,1.132617 1.574338,2.774912 0.554982,1.642295 0.554982,3.7263104 0,2.0840156 -0.566309,3.7376366 -0.554982,1.6422949 -1.563011,2.7409335 -1.042008,1.14394333 -2.469106,1.72157807 -1.415771,0.57763475 -3.239285,0.57763475 -1.778209,0 -3.239285,-0.58896092 -1.44975,-0.58896092 -2.469105,-1.7102519 -1.019355,-1.121291 -1.574338,-2.7522597 -0.543656,-1.6309686 -0.543656,-3.7263104 0,-2.0613634 0.543656,-3.6923314 0.543656,-1.642295 1.585664,-2.808891 0.996703,-1.109965 2.469106,-1.698926 1.483728,-0.588961 3.227958,-0.588961 1.812188,0 3.250612,0.600287 1.44975,0.588961 2.457779,1.6876 z m -0.203871,6.5012224 q 0,-3.2845894 -1.472403,-5.0627984 -1.472402,-1.789535 -4.02079,-1.789535 -2.571041,0 -4.043444,1.789535 -1.461076,1.778209 -1.461076,5.0627984 0,3.3185683 1.495055,5.085451 1.495054,1.7555566 4.009465,1.7555566 2.51441,0 3.998138,-1.7555566 1.495055,-1.7668827 1.495055,-5.085451 z"
       style="font-size:23.19599915px;font-family:Gotham-Light;fill:#091137"
       id="path4521" /></g><g
     aria-label="PARIS"
     transform="matrix(1 0 0 1.0417 209.0931 102.6028)"
     style=""
     id="text18"><path
       d="m 13.296925,-11.767892 q 0,1.121291 -0.396416,2.0840154 -0.38509,0.9513984 -1.087312,1.653621 -0.872115,0.8721152 -2.0613634,1.3138359 -1.189248,0.4303945 -3.0014354,0.4303945 H 4.5078162 V 0 H 2.2652343 v -16.864669 h 4.5757733 q 1.5177069,0 2.5710409,0.260502 1.0533335,0.249175 1.8688185,0.792832 0.962724,0.645591 1.483728,1.608316 0.53233,0.962725 0.53233,2.435127 z m -2.333191,0.05663 q 0,-0.872115 -0.305807,-1.517707 Q 10.352121,-13.87456 9.7291813,-14.282302 9.1855251,-14.633414 8.4833024,-14.780654 7.792406,-14.93922 6.7277458,-14.93922 H 4.5078162 v 6.7390719 h 1.8914707 q 1.3591405,0 2.2086034,-0.2378496 0.8494629,-0.2491758 1.3817929,-0.7815059 0.5323298,-0.5436562 0.7475278,-1.1439434 0.226523,-0.600287 0.226523,-1.347814 z"
       style="font-size:23.19599915px;font-family:Gotham-Light;letter-spacing:-1;fill:#091137"
       id="path4524" /><path
       d="M 29.462159,0 H 27.072337 L 25.418716,-4.7003612 H 18.124662 L 16.471041,0 H 14.19448 l 6.138785,-16.864669 h 2.990109 z m -4.734339,-6.6258103 -2.956131,-8.2794317 -2.967457,8.2794317 z"
       style="font-size:23.19599915px;font-family:Gotham-Light;fill:#091137"
       id="path4526" /><path
       d="M 45.975717,0 H 43.064891 L 37.424458,-6.7050935 H 34.264456 V 0 h -2.242582 v -16.864669 h 4.723013 q 1.529033,0 2.548389,0.203871 1.019355,0.192545 1.83484,0.702222 0.91742,0.577635 1.427097,1.461077 0.521004,0.872115 0.521004,2.219929 0,1.823514 -0.91742,3.0580664 -0.91742,1.2232266 -2.525736,1.846166 z M 40.7317,-12.119003 q 0,-0.724875 -0.260502,-1.279858 -0.249176,-0.566308 -0.838137,-0.951398 -0.487025,-0.328459 -1.155269,-0.453047 -0.668245,-0.135914 -1.574338,-0.135914 h -2.638998 v 6.3653082 h 2.265234 q 1.06466,0 1.857492,-0.1812187 0.792832,-0.192545 1.347815,-0.7022227 0.509677,-0.4756992 0.747527,-1.0873128 0.249176,-0.622939 0.249176,-1.574337 z"
       style="font-size:23.19599915px;font-family:Gotham-Light;fill:#091137"
       id="path4528" /><path
       d="m 54.096581,0 h -6.659788 v -1.7215781 h 2.208603 V -15.143091 h -2.208603 v -1.721578 h 6.659788 v 1.721578 h -2.208603 v 13.4215129 h 2.208603 z"
       style="font-size:23.19599915px;font-family:Gotham-Light;fill:#091137"
       id="path4530" /><path
       d="m 70.191071,-4.8136229 q 0,0.9853769 -0.464373,1.9481015 -0.453047,0.9627246 -1.279857,1.6309687 -0.906094,0.72487498 -2.117994,1.13261716 -1.200574,0.40774217 -2.8995,0.40774217 -1.823514,0 -3.28459,-0.33978514 -1.44975,-0.33978515 -2.956131,-1.00802929 v -2.8088905 h 0.158567 q 1.279857,1.0646601 2.956131,1.6422949 1.676273,0.5776347 3.148675,0.5776347 2.084016,0 3.239285,-0.7815058 1.166596,-0.7815059 1.166596,-2.0840156 0,-1.1212909 -0.554982,-1.653621 -0.543657,-0.5323301 -1.664948,-0.8268105 -0.849463,-0.2265234 -1.846166,-0.3737637 -0.985377,-0.1472402 -2.095341,-0.3737636 -2.242582,-0.4756992 -3.329895,-1.6196426 -1.075986,-1.1552695 -1.075986,-3.0014355 0,-2.117994 1.789535,-3.465808 1.789535,-1.359141 4.541795,-1.359141 1.778209,0 3.261937,0.339785 1.483729,0.339785 2.627672,0.838137 v 2.650324 h -0.158566 q -0.962725,-0.815484 -2.537063,-1.347814 -1.563012,-0.543657 -3.205306,-0.543657 -1.800862,0 -2.8995,0.747528 -1.087313,0.747527 -1.087313,1.925449 0,1.053334 0.543656,1.653621 0.543657,0.600287 1.914123,0.9174198 0.724875,0.1585664 2.061364,0.3850898 1.336488,0.2265234 2.265234,0.464373 1.880144,0.4983516 2.831543,1.5063808 0.951398,1.0080293 0.951398,2.8202167 z"
       style="font-size:23.19599915px;font-family:Gotham-Light;fill:#091137"
       id="path4532" /></g><text
     transform="matrix(1 0 0 1.0417 311.2601 102.6028)"
     fill="#091137"
     font-family="'Gotham-Light'"
     font-size="38.8194"
     id="text20" />
<path
     fill="#D95A70"
     d="M362.5,55c0,0,9.5,1.4,12.3-4.3c5.6-11.2-3.6-17.7-10-13.6c-0.6,0.4-1.2,1.3-1.3,1.4  C366.3,39.7,369.8,50.4,362.5,55"
     id="path22" /></svg>