<?xml version="1.0" encoding="UTF-8" standalone="no"?>
<!-- Generator: Adobe Illustrator 18.0.0, SVG Export Plug-In . SVG Version: 6.00 Build 0)  -->

<svg
   xmlns:dc="http://purl.org/dc/elements/1.1/"
   xmlns:cc="http://creativecommons.org/ns#"
   xmlns:rdf="http://www.w3.org/1999/02/22-rdf-syntax-ns#"
   xmlns:svg="http://www.w3.org/2000/svg"
   xmlns="http://www.w3.org/2000/svg"
   xmlns:sodipodi="http://sodipodi.sourceforge.net/DTD/sodipodi-0.dtd"
   xmlns:inkscape="http://www.inkscape.org/namespaces/inkscape"
   version="1.1"
   id="Calque_1"
   x="0px"
   y="0px"
   viewBox="0 0 300 300"
   enable-background="new 0 0 300 300"
   xml:space="preserve"
   sodipodi:docname="welcom-logo-vertical-footer.svg"
   inkscape:version="0.92.1 r15371"><metadata
     id="metadata31"><rdf:RDF><cc:Work
         rdf:about=""><dc:format>image/svg+xml</dc:format><dc:type
           rdf:resource="http://purl.org/dc/dcmitype/StillImage" /></cc:Work></rdf:RDF></metadata><defs
     id="defs29" /><sodipodi:namedview
     pagecolor="#ffffff"
     bordercolor="#666666"
     borderopacity="1"
     objecttolerance="10"
     gridtolerance="10"
     guidetolerance="10"
     inkscape:pageopacity="0"
     inkscape:pageshadow="2"
     inkscape:window-width="1920"
     inkscape:window-height="1017"
     id="namedview27"
     showgrid="false"
     inkscape:zoom="0.78666667"
     inkscape:cx="150"
     inkscape:cy="150"
     inkscape:window-x="1672"
     inkscape:window-y="218"
     inkscape:window-maximized="1"
     inkscape:current-layer="Calque_1" /><path
     fill="#FED224"
     d="M224.9,44.6c-11.5-20-32.2-31.7-57.6-37l-0.7-0.1c-10.9-2.2-22.6-3.2-34.8-3.2c-56.9,0-103,22.4-103,81.2  c0,1.7,0,3.4,0.1,5.1l0.1,1.2c0.2,3.5,0.6,7,1.1,10.5l0,0.1c3.2,20.9,12.3,39.8,25.5,54.8l0.7,0.7c18.8,21,45.7,34.1,75.5,34.1  c22.2,0,40.5-4.5,55.2-12.4c25.4,4.7,44.7-2.5,56.3-9.2l7-4.6c3.7-2.8,5.7-4.8,5.7-4.8c-21.5,6.1-34.9,0.8-42.1-4.3  c1.6-2.2,3.2-4.4,4.6-6.7l0.4-0.6c10.9-17.8,15.9-39.8,15.9-63.8c0-13.8-2.5-25.6-7.2-35.6 M246.3,168.3  C246.3,168.3,246.3,168.3,246.3,168.3"
     id="path2" /><path
     fill="#DB5B71"
     d="M207.6,72.9c11.1-17.7-4.2-34.4-14.8-27.6c-0.9,0.6-2,2.2-2.2,2.4c4.7,1.9,10.4,19.6-1.6,27.3  c-6.9,4.4-13.7,3.8-19,1.5c-1-7.8-2.8-13.6-5.2-15.5c-5.3-4.2-12.4-1.2-8.7,8.6c1.1,2.8,3.9,5.7,7.7,8.2  c0.6,21.4-5.2,64.6-16.1,64.9c-9.8,0.2-3.8-45.2-1.1-55.7c0,0,2.4-10.9-12.2-9.4c-1.2,0.1-3.7,6.8-5.7,16c-5.8,18-15.7,46-20.6,45.6  c-7.3-0.6,3.2-54.3,16-82.5c0,0,3.7-12.6-7.3-13.1c-2.9-0.1-5.7,1.5-8.4,4.6C92.5,60,66.2,67.1,58,85.5c-9.5,21.2,13.4,31.6,20.5,24  l0.3-0.3c-6.4-6.9-5.9-17.4,0.1-24.6c3.7-4.5,13.8-15.4,22.5-24.2c-4.3,9.8-8.1,23-11.4,37.1c-6.8,29-8.3,53.9,16.1,55.1  c6.9,0.3,14.1-14.7,19.9-31.5c0.5,14.4,4.8,27.2,17.7,28.8c22.1,2.8,28.9-41.3,26.8-68.6C182.6,86.3,199,86.6,207.6,72.9   M160.6,66.3c1.5-0.9,2.4,1.6,2.9,6.2C160.5,69.8,159.3,67,160.6,66.3"
     id="path4" /><g
     aria-label="WELCOM"
     transform="matrix(0.997 0 0 1 -0.2314 254.8584)"
     style="font-size:57.16049957px;font-family:Gotham-Bold;fill:#ffffff"
     id="text6"><path
       d="M 53.950804,-41.558586 43.149479,0 h -6.22402 L 28.189504,-34.497255 19.648922,0 H 13.564454 L 2.5677568,-41.558586 h 5.6658113 l 8.7359549,34.5530756 8.596404,-34.5530756 h 5.60999 l 8.680134,34.8880004 8.680135,-34.8880004 z"
       style="font-size:57.16049957px;font-family:Gotham-Bold;fill:#ffffff"
       id="path4508" /><path
       d="M 89.452833,0 H 62.07273 v -41.558586 h 27.380103 v 4.912231 H 67.598989 v 11.387443 h 21.853844 v 4.91223 H 67.598989 v 15.4344516 h 21.853844 z"
       style="font-size:57.16049957px;font-family:Gotham-Bold;fill:#ffffff"
       id="path4510" /><path
       d="M 124.53621,0 H 98.244609 v -41.558586 h 5.526261 v 36.6463556 h 20.76534 z"
       style="font-size:57.16049957px;font-family:Gotham-Bold;fill:#ffffff"
       id="path4512" /><path
       d="m 161.60122,-3.0143232 q -1.53507,0.6698496 -2.79104,1.255968 -1.22806,0.5861184 -3.23761,1.2280576 Q 153.87004,0 151.86049,0.3628352 q -1.98164,0.3907456 -4.38193,0.3907456 -4.52149,0 -8.23357,-1.255968 -3.68417,-1.2838784 -6.41939,-3.9911872 -2.6794,-2.651488 -4.18656,-6.7264066 -1.50716,-4.102829 -1.50716,-9.517446 0,-5.135514 1.45134,-9.182522 1.45134,-4.047008 4.18656,-6.838048 2.65149,-2.707309 6.39148,-4.130739 3.7679,-1.423431 8.34521,-1.423431 3.34925,0 6.67058,0.809402 3.34925,0.809402 7.42417,2.846861 v 6.558944 h -0.41866 q -3.43297,-2.874771 -6.81013,-4.18656 -3.37716,-1.311789 -7.2288,-1.311789 -3.15387,0 -5.69372,1.032685 -2.51193,1.004774 -4.49357,3.153875 -1.92582,2.09328 -3.01433,5.302976 -1.06059,3.181786 -1.06059,7.368346 0,4.381932 1.17224,7.535808 1.20014,3.153875 3.07014,5.1355133 1.95373,2.0653697 4.54939,3.0701441 2.62358,0.976864 5.52626,0.976864 3.99119,0 7.47999,-1.3676096 3.4888,-1.3676096 6.53103,-4.1028289 h 0.39075 z"
       style="font-size:57.16049957px;font-family:Gotham-Bold;fill:#ffffff"
       id="path4514" /><path
       d="m 200.45249,-36.785907 q 2.53984,2.79104 3.87954,6.838048 1.36761,4.047008 1.36761,9.182521 0,5.135514 -1.39552,9.210432 -1.36761,4.0470084 -3.85163,6.7543172 -2.56776,2.8189504 -6.08447,4.2423808 -3.4888,1.42343041 -7.98238,1.42343041 -4.38193,0 -7.98237,-1.45134081 -3.57253,-1.4513408 -6.08447,-4.2144704 -2.51193,-2.7631296 -3.87954,-6.7822272 -1.3397,-4.019098 -1.3397,-9.182522 0,-5.079693 1.3397,-9.09879 1.3397,-4.047008 3.90745,-6.921779 2.45612,-2.73522 6.08447,-4.18656 3.65626,-1.451341 7.95446,-1.451341 4.46567,0 8.01029,1.479251 3.57253,1.451341 6.05656,4.15865 z m -0.50239,16.020569 q 0,-8.094016 -3.62835,-12.475949 -3.62835,-4.409843 -9.90819,-4.409843 -6.33567,0 -9.96402,4.409843 -3.60044,4.381933 -3.60044,12.475949 0,8.177748 3.68417,12.5317699 3.68418,4.3261121 9.88029,4.3261121 6.1961,0 9.85237,-4.3261121 3.68417,-4.3540219 3.68417,-12.5317699 z"
       style="font-size:57.16049957px;font-family:Gotham-Bold;fill:#ffffff"
       id="path4516" /><path
       d="m 251.47271,0 h -5.52626 v -35.809043 l -11.55491,24.365779 h -3.29342 L 219.62694,-35.809043 V 0 h -5.16342 v -41.558586 h 7.53581 l 11.08043,23.137722 10.71759,-23.137722 h 7.67536 z"
       style="font-size:57.16049957px;font-family:Gotham-Bold;fill:#ffffff"
       id="path4518" /></g><g
     aria-label="TO"
     transform="matrix(0.997 0 0 1.0417 52.3105 295.4199)"
     style=""
     id="text14"><path
       d="M 20.205064,-21.021591 H 11.687557 V 0 H 8.517507 V -21.021591 H 0 v -2.817822 h 20.205064 z"
       style="font-size:32.78919983px;font-family:Gotham-Light;letter-spacing:-1;fill:#ffffff"
       id="path4521" /><path
       d="m 40.47356,-21.101643 q 1.456942,1.601035 2.225439,3.922536 0.784508,2.321501 0.784508,5.267405 0,2.9459052 -0.800518,5.2834165 -0.784507,2.321501 -2.209429,3.874505 -1.472952,1.6170455 -3.490256,2.43357347 -2.001294,0.81652793 -4.578961,0.81652793 -2.513625,0 -4.57896,-0.83253828 -2.049325,-0.83253832 -3.490257,-2.41756312 -1.440931,-1.5850248 -2.225439,-3.8905154 -0.768497,-2.3054906 -0.768497,-5.2674061 0,-2.913883 0.768497,-5.219374 0.768497,-2.321501 2.241449,-3.970567 1.408911,-1.569015 3.490257,-2.401553 2.097356,-0.832538 4.56295,-0.832538 2.561657,0 4.594971,0.848548 2.049325,0.832539 3.474246,2.385543 z m -0.288186,9.189941 q 0,-4.643001 -2.081346,-7.156627 -2.081345,-2.529635 -5.683674,-2.529635 -3.63435,0 -5.715696,2.529635 -2.065335,2.513626 -2.065335,7.156627 0,4.6910335 2.113366,7.1886483 2.113367,2.4816045 5.667665,2.4816045 3.554298,0 5.651654,-2.4816045 2.113366,-2.4976148 2.113366,-7.1886483 z"
       style="font-size:32.78919983px;font-family:Gotham-Light;fill:#ffffff"
       id="path4523" /></g><g
     aria-label="PARIS"
     transform="matrix(0.997 0 0 1.0417 109.292 295.4199)"
     style=""
     id="text20"><path
       d="m 18.796153,-16.634755 q 0,1.585025 -0.560363,2.945904 -0.544352,1.34487 -1.536993,2.337512 -1.232797,1.232797 -2.913884,1.8572006 -1.681087,0.6083933 -4.2427435,0.6083933 H 6.3721199 V 0 H 3.2020703 v -23.839413 h 6.468182 q 2.1453867,0 3.6343497,0.368238 1.488963,0.352227 2.641708,1.120724 1.36088,0.91259 2.097356,2.27347 0.752487,1.36088 0.752487,3.442226 z m -3.298133,0.08005 q 0,-1.232797 -0.432279,-2.145388 -0.43228,-0.91259 -1.312849,-1.488962 -0.768497,-0.496321 -1.761139,-0.704456 -0.976631,-0.224145 -2.4816042,-0.224145 H 6.3721199 v 9.52616 h 2.6737287 q 1.9212424,0 3.1220184,-0.336218 1.200776,-0.352228 1.953263,-1.104714 0.752487,-0.768497 1.056683,-1.617046 0.320207,-0.848548 0.320207,-1.905231 z"
       style="font-size:32.78919983px;font-family:Gotham-Light;letter-spacing:-2;fill:#ffffff"
       id="path4526" /><path
       d="M 41.598223,0 H 38.220039 L 35.882528,-6.6442959 H 25.571861 L 23.23435,0 h -3.21808 l 8.67761,-23.839413 h 4.226733 z M 34.905896,-9.3660556 30.727195,-21.069623 26.532483,-9.3660556 Z"
       style="font-size:32.78919983px;font-family:Gotham-Light;fill:#ffffff"
       id="path4528" /><path
       d="m 64.941315,0 h -4.11466 L 52.8535,-9.4781281 H 48.386612 V 0 h -3.17005 v -23.839413 h 6.676317 q 2.161397,0 3.602329,0.288186 1.440932,0.272176 2.593677,0.992642 1.296838,0.816528 2.017304,2.065335 0.736476,1.232797 0.736476,3.138029 0,2.577667 -1.296838,4.322795 -1.296839,1.729118 -3.570308,2.609687 z m -7.412792,-17.131076 q 0,-1.024663 -0.368238,-1.80917 -0.352228,-0.800517 -1.184766,-1.344869 -0.688446,-0.464301 -1.633056,-0.640414 -0.944611,-0.192125 -2.225439,-0.192125 h -3.730412 v 8.997818 h 3.20207 q 1.504973,0 2.625698,-0.256166 1.120724,-0.272176 1.905232,-0.992641 0.720466,-0.672435 1.056683,-1.536994 0.352228,-0.88057 0.352228,-2.225439 z"
       style="font-size:32.78919983px;font-family:Gotham-Light;fill:#ffffff"
       id="path4530" /><path
       d="m 76.420739,0 h -9.414087 v -2.4335734 h 3.122019 V -21.40584 h -3.122019 v -2.433573 h 9.414087 v 2.433573 h -3.122018 v 18.9722666 h 3.122018 z"
       style="font-size:32.78919983px;font-family:Gotham-Light;fill:#ffffff"
       id="path4532" /><path
       d="m 99.171448,-6.8043994 q 0,1.3929006 -0.656425,2.7537805 -0.640414,1.3608799 -1.809169,2.3054906 -1.280828,1.02466248 -2.993936,1.60103514 -1.697097,0.57637265 -4.09865,0.57637265 -2.577667,0 -4.643002,-0.48031054 -2.049325,-0.48031055 -4.178702,-1.42492125 v -3.9705672 h 0.224145 q 1.80917,1.504973 4.178702,2.321501 2.369532,0.8165279 4.450878,0.8165279 2.945904,0 4.57896,-1.1047143 1.649066,-1.1047142 1.649066,-2.9459046 0,-1.5850248 -0.784507,-2.3375114 -0.768497,-0.7524865 -2.353521,-1.1687556 -1.200777,-0.3202075 -2.609688,-0.5283415 -1.3929,-0.208135 -2.961915,-0.528342 -3.170049,-0.672434 -4.707043,-2.28948 -1.520983,-1.633056 -1.520983,-4.242743 0,-2.993936 2.529635,-4.899168 2.529636,-1.921242 6.420151,-1.921242 2.513625,0 4.610981,0.480311 2.097356,0.48031 3.714402,1.184766 v 3.746422 h -0.224145 q -1.36088,-1.152745 -3.586319,-1.905232 -2.209428,-0.768497 -4.530929,-0.768497 -2.545646,0 -4.09865,1.056683 -1.536994,1.056684 -1.536994,2.72176 0,1.488963 0.768497,2.337512 0.768497,0.848548 2.705749,1.296838 1.024663,0.224145 2.913884,0.544352 1.889222,0.320207 3.20207,0.656424 2.657719,0.704456 4.002588,2.129377 1.34487,1.4249214 1.34487,3.9865776 z"
       style="font-size:32.78919983px;font-family:Gotham-Light;fill:#ffffff"
       id="path4534" /></g><text
     transform="matrix(0.997 0 0 1.0417 208.1816 295.4199)"
     fill="#091137"
     font-family="'Gotham-Light'"
     font-size="54.8741"
     id="text22" />
<path
     fill="#DB5B71"
     d="M280.4,228.1c0,0,13.4,1.9,17.4-6c7.9-15.9-5.1-25-14.1-19.2c-0.8,0.5-1.7,1.9-1.9,2  C285.8,206.5,290.6,221.6,280.4,228.1"
     id="path24" /></svg>